<svg width="45" height="45" viewBox="0 0 45 45" fill="none" xmlns="http://www.w3.org/2000/svg">
<path d="M40.2075 21.095C40.2075 32.5225 26.1425 41.72 23.0825 43.595C22.9069 43.7016 22.7054 43.758 22.5 43.758C22.2946 43.758 22.0931 43.7016 21.9175 43.595C18.8575 41.7275 4.79248 32.53 4.79248 21.095V7.345C4.79376 7.05671 4.90817 6.78044 5.11109 6.57566C5.31401 6.37087 5.58921 6.25393 5.87748 6.25C16.82 5.965 14.3 1.25 22.5 1.25C30.7 1.25 28.18 5.965 39.1225 6.25C39.4095 6.2539 39.6836 6.3698 39.8863 6.57298C40.089 6.77615 40.2042 7.05051 40.2075 7.3375V21.095Z" fill="#76BC2D"/>
<path d="M38.75 21.2125C38.75 31.69 25.85 40.1275 23.045 41.8375C22.8838 41.9355 22.6987 41.9873 22.51 41.9873C22.3213 41.9873 22.1362 41.9355 21.975 41.8375C19.16 40.1275 6.25 31.69 6.25 21.2125V8.6025C6.25 8.33728 6.35536 8.08293 6.54289 7.89539C6.73043 7.70785 6.98478 7.6025 7.25 7.6025C17.29 7.3375 14.98 3.0125 22.5 3.0125C30.02 3.0125 27.71 7.3375 37.75 7.605C38.0152 7.605 38.2696 7.71035 38.4571 7.89789C38.6446 8.08543 38.75 8.33978 38.75 8.605V21.2125Z" fill="url(#paint0_linear_600_917)"/>
<path d="M29.6327 19.15H28.6127V15.6075C28.6214 13.9331 27.9962 12.3174 26.8627 11.085C26.3103 10.4799 25.6379 9.99657 24.8883 9.66589C24.1386 9.3352 23.3283 9.16441 22.509 9.16441C21.6897 9.16441 20.8793 9.3352 20.1297 9.66589C19.3801 9.99657 18.7076 10.4799 18.1552 11.085C17.0123 12.3105 16.3855 13.9293 16.4052 15.605V19.15H15.3677C15.1545 19.1512 14.9502 19.2355 14.7981 19.3848C14.6459 19.5341 14.5579 19.7369 14.5527 19.95V29.155C14.5586 29.3679 14.6467 29.5703 14.7988 29.7195C14.9508 29.8687 15.1547 29.9531 15.3677 29.955H29.6327C29.8457 29.9531 30.0497 29.8687 30.2017 29.7195C30.3537 29.5703 30.4419 29.3679 30.4477 29.155V19.95C30.4425 19.7369 30.3545 19.5341 30.2024 19.3848C30.0502 19.2355 29.8459 19.1512 29.6327 19.15ZM25.7602 19.15H19.2502V15.5475C19.2592 14.621 19.6266 13.7341 20.2752 13.0725C20.5566 12.7582 20.9011 12.5069 21.2862 12.3348C21.6713 12.1627 22.0884 12.0737 22.5102 12.0737C22.9321 12.0737 23.3491 12.1627 23.7342 12.3348C24.1194 12.5069 24.4639 12.7582 24.7452 13.0725C24.8876 13.2273 25.0156 13.3946 25.1277 13.5725C25.532 14.1542 25.7563 14.8419 25.7727 15.55L25.7602 19.15Z" fill="white"/>
<path opacity="0.15" d="M15.3702 19.145H29.6327C29.8258 19.1478 30.0117 19.2186 30.1577 19.345L14.8452 29.75C14.7553 29.6772 14.6827 29.5855 14.6326 29.4813C14.5824 29.3771 14.556 29.2631 14.5552 29.1475V19.9475C14.5597 19.7339 14.6474 19.5306 14.7997 19.3807C14.9519 19.2308 15.1566 19.1463 15.3702 19.145Z" fill="#B3B3B3"/>
<path opacity="0.09" d="M29.6327 19.145H15.3677C15.1755 19.1484 14.9906 19.2191 14.8452 19.345L30.1552 29.75C30.2454 29.6774 30.3184 29.5857 30.3689 29.4815C30.4195 29.3773 30.4464 29.2633 30.4477 29.1475V19.9475C30.4425 19.7341 30.3546 19.5311 30.2025 19.3814C30.0505 19.2317 29.8461 19.1469 29.6327 19.145Z" fill="#A3A3A3"/>
<defs>
<linearGradient id="paint0_linear_600_917" x1="22.5" y1="41.9875" x2="22.5" y2="3.0125" gradientUnits="userSpaceOnUse">
<stop stop-color="#5E9624"/>
<stop offset="0.321" stop-color="#639D26"/>
<stop offset="0.794" stop-color="#6FB12A"/>
<stop offset="0.999" stop-color="#76BC2D"/>
</linearGradient>
</defs>
</svg>
